HIERARCHY
ROOT Hips
{
  OFFSET -4.35178 90.3298 111.633
  CHANNELS 6 Xposition Yposition Zposition Zrotation Xrotation Yrotation
  JOINT LeftUpLeg
  {
    OFFSET 0.103456 1.85784 10.5485
    CHANNELS 6 Xposition Yposition Zposition Zrotation Xrotation Yrotation
    JOINT LeftLeg
    {
      OFFSET 43.5 -4.2e-05 0
      CHANNELS 6 Xposition Yposition Zposition Zrotation Xrotation Yrotation
      JOINT LeftFoot
      {
        OFFSET 42.3722 1.9e-05 0
        CHANNELS 6 Xposition Yposition Zposition Zrotation Xrotation Yrotation
        JOINT LeftToe
        {
          OFFSET 17.3 0 0
          CHANNELS 6 Xposition Yposition Zposition Zrotation Xrotation Yrotation
          End Site
          {
            OFFSET 0 0 0
          }
        }
      }
    }
  }
  JOINT RightUpLeg
  {
    OFFSET 0.103456 1.85782 -10.5485
    CHANNELS 6 Xposition Yposition Zposition Zrotation Xrotation Yrotation
    JOINT RightLeg
    {
      OFFSET 43.5 -2.7e-05 0
      CHANNELS 6 Xposition Yposition Zposition Zrotation Xrotation Yrotation
      JOINT RightFoot
      {
        OFFSET 42.3723 0 0
        CHANNELS 6 Xposition Yposition Zposition Zrotation Xrotation Yrotation
        JOINT RightToe
        {
          OFFSET 17.3 0 1.7e-05
          CHANNELS 6 Xposition Yposition Zposition Zrotation Xrotation Yrotation
          End Site
          {
            OFFSET 0 0 0
          }
        }
      }
    }
  }
  JOINT Spine
  {
    OFFSET 6.90197 -2.60373 0
    CHANNELS 6 Xposition Yposition Zposition Zrotation Xrotation Yrotation
    JOINT Spine1
    {
      OFFSET 12.5881 0 0
      CHANNELS 6 Xposition Yposition Zposition Zrotation Xrotation Yrotation
      JOINT Spine2
      {
        OFFSET 12.3432 -1.8e-05 0
        CHANNELS 6 Xposition Yposition Zposition Zrotation Xrotation Yrotation
        JOINT Neck
        {
          OFFSET 25.8329 2.3e-05 0
          CHANNELS 6 Xposition Yposition Zposition Zrotation Xrotation Yrotation
          JOINT Head
          {
            OFFSET 11.7666 0 0
            CHANNELS 6 Xposition Yposition Zposition Zrotation Xrotation Yrotation
            End Site
            {
              OFFSET 0 0 0
            }
          }
        }
        JOINT LeftShoulder
        {
          OFFSET 19.7459 -1.48035 6.0001
          CHANNELS 6 Xposition Yposition Zposition Zrotation Xrotation Yrotation
          JOINT LeftArm
          {
            OFFSET 11.2841 1.8e-05 -2e-05
            CHANNELS 6 Xposition Yposition Zposition Zrotation Xrotation Yrotation
            JOINT LeftForeArm
            {
              OFFSET 33 -1.3e-05 1.9e-05
              CHANNELS 6 Xposition Yposition Zposition Zrotation Xrotation Yrotation
              JOINT LeftHand
              {
                OFFSET 25.2 3.2e-05 1.1e-05
                CHANNELS 6 Xposition Yposition Zposition Zrotation Xrotation Yrotation
                End Site
                {
                  OFFSET 0 0 0
                }
              }
            }
          }
        }
        JOINT RightShoulder
        {
          OFFSET 19.7461 -1.48036 -6.00008
          CHANNELS 6 Xposition Yposition Zposition Zrotation Xrotation Yrotation
          JOINT RightArm
          {
            OFFSET 11.2841 0 0
            CHANNELS 6 Xposition Yposition Zposition Zrotation Xrotation Yrotation
            JOINT RightForeArm
            {
              OFFSET 33.0001 1.6e-05 0
              CHANNELS 6 Xposition Yposition Zposition Zrotation Xrotation Yrotation
              JOINT RightHand
              {
                OFFSET 25.1998 0.000123 0.000432
                CHANNELS 6 Xposition Yposition Zposition Zrotation Xrotation Yrotation
                End Site
                {
                  OFFSET 0 0 0
                }
              }
            }
          }
        }
      }
    }
  }
}
MOTION
Frames:	8
Frame Time:	0.0333333
-17.3074 91.3354 0.586535 42.5554 84.0735 49.6771 0.103456 1.85784 10.5485 5.33046 10.8839 -174.891 43.5 -4.2e-05 1e-05 -17.7863 -7.79672 -3.11074 42.3722 1.9e-05 8.88178e-16 77.6894 2.21522 -2.02467 17.3 0 3e-06 21.4546 -1e-06 0.003093 0.103456 1.85782 -10.5485 7.2958 -0.0918405 174.773 43.5 -2.7e-05 4e-06 -12.9324 11.3232 1.39111 42.3723 -2.66454e-15 1e-05 85.4724 6.81386 -9.1797 17.3 -6e-06 1.7e-05 21.4546 -1.9e-05 -0.003116 6.90197 -2.60373 -3e-06 7.26073 0.100238 -0.0196538 12.5881 1e-05 8e-06 4.50482 0.255786 -0.0297769 12.3432 -1.8e-05 -5e-06 4.18253 0.318908 -0.0349891 25.8329 2.3e-05 7e-06 5.01353 0.0285842 -4.75566 11.7666 -8e-06 -6e-06 -20.208 -6.67885 11.9366 19.7459 -1.48035 6.0001 174.19 -10.3473 -100.584 11.2841 1.8e-05 -2e-05 6.97431 -26.8673 36.3534 33 -1.3e-05 1.9e-05 -22.1168 10.6238 -16.4333 25.2 3.2e-05 1.1e-05 -0.640265 30.6181 3.40148 19.7461 -1.48036 -6.00008 -179.252 0.436501 80.5319 11.2841 0 -1e-06 5.67894 -0.39538 -3.70523 33.0001 1.6e-05 -1e-06 -26.4365 4.21998 19.5193 25.1998 0.000123 0.000432 18.0106 -14.1999 5.85158 
-17.7233 91.2591 0.940192 41.1117 84.1676 51.0224 0.103456 1.85784 10.5485 5.02277 10.4159 -174.462 43.5 -4.2e-05 1e-05 -18.8117 -7.78133 -3.14048 42.3722 1.9e-05 8.88178e-16 78.0643 2.03472 -1.80002 17.3 0 3e-06 21.4546 -1e-06 0.003093 0.103456 1.85782 -10.5485 7.77587 -0.21966 175.121 43.5 -2.7e-05 4e-06 -12.6196 11.4366 1.39116 42.3723 3.55271e-15 1e-05 85.8239 6.81991 -9.01556 17.3 -6e-06 1.7e-05 21.4546 -1.9e-05 -0.003116 6.90197 -2.60373 -3e-06 7.25663 0.111879 -0.053145 12.5881 1e-05 8e-06 4.49665 0.274221 -0.0981954 12.3432 -1.8e-05 -5e-06 4.17433 0.332958 -0.104445 25.8329 2.3e-05 7e-06 4.9313 -0.0340876 -4.72872 11.7666 -8e-06 -6e-06 -19.741 -6.69849 11.8861 19.7459 -1.48035 6.0001 174.31 -10.3987 -100.286 11.2841 1.8e-05 -2e-05 6.54411 -26.6126 36.1004 33 -1.3e-05 1.9e-05 -23.4198 10.6252 -16.1129 25.2 3.2e-05 1.1e-05 -0.991806 30.5465 3.57018 19.7461 -1.48036 -6.00008 -179.305 0.4289 80.4416 11.2841 7.10543e-15 -1e-06 5.8013 -0.165168 -4.01036 33.0001 1.6e-05 -1e-06 -26.3996 4.36032 19.5277 25.1998 0.000123 0.000432 18.0984 -14.1137 5.8183 
-18.173 91.1463 1.27864 39.3909 84.2856 52.611 0.103456 1.85784 10.5485 4.10445 9.62368 -173.948 43.5 -4.2e-05 1e-05 -21.0074 -7.73432 -3.17463 42.3722 1.9e-05 1.77636e-15 78.5209 1.93377 -1.15738 17.3 4.44089e-16 3e-06 21.4546 -1e-06 0.003093 0.103456 1.85782 -10.5485 8.08138 -0.292349 175.563 43.5 -2.7e-05 4e-06 -12.6341 11.5493 1.32262 42.3723 1.77636e-15 1e-05 86.2436 6.89533 -8.87303 17.3 -6e-06 1.7e-05 21.4546 -1.9e-05 -0.003116 6.90197 -2.60373 -3e-06 7.28634 0.116362 -0.0628414 12.5881 1e-05 8e-06 4.55605 0.282456 -0.118173 12.3432 -1.8e-05 -5e-06 4.23368 0.340813 -0.124783 25.8329 2.3e-05 7e-06 4.78399 -0.132408 -4.74013 11.7666 -8e-06 -6e-06 -19.2726 -6.70609 11.7597 19.7459 -1.48035 6.0001 174.651 -10.4238 -99.8067 11.2841 1.8e-05 -2e-05 6.10599 -25.9254 35.9117 33 -1.3e-05 1.9e-05 -25.506 10.5246 -15.5212 25.2 3.2e-05 1.1e-05 -1.58503 30.3807 3.83159 19.7461 -1.48036 -6.00008 -179.409 0.445029 80.3672 11.2841 3.55271e-15 -1e-06 5.9177 0.161082 -4.32615 33.0001 1.6e-05 -1e-06 -26.6465 4.45878 19.6033 25.1998 0.000123 0.000432 18.0331 -14.0082 5.81237 
-18.6415 91.0281 1.58696 36.8227 84.4166 55.02 0.103456 1.85784 10.5485 2.48958 8.68461 -173.399 43.5 -4.2e-05 1e-05 -24.4901 -7.62657 -3.24109 42.3722 1.9e-05 4.44089e-16 78.7602 2.2458 0.052419 17.3 1.77636e-15 3e-06 21.4546 -1e-06 0.003093 0.103456 1.85782 -10.5485 8.22297 -0.49563 176.049 43.5 -2.7e-05 4e-06 -12.9858 11.6438 1.24341 42.3723 -3.55271e-15 1e-05 86.6758 6.99847 -8.67162 17.3 -6e-06 1.7e-05 21.4546 -1.9e-05 -0.003116 6.90197 -2.60373 -3e-06 7.36163 0.112178 -0.0498422 12.5881 1e-05 8e-06 4.70656 0.277624 -0.0915886 12.3432 -1.8e-05 -5e-06 4.38415 0.339912 -0.0977045 25.8329 2.3e-05 7e-06 4.62331 -0.30873 -4.73574 11.7666 -8e-06 -6e-06 -18.8301 -6.75973 11.5358 19.7459 -1.48035 6.0001 175.088 -10.3287 -99.2186 11.2841 1.8e-05 -2e-05 6.0534 -25.3307 36.3442 33 -1.3e-05 1.9e-05 -28.0215 10.5033 -14.8901 25.2 3.2e-05 1.1e-05 -2.69388 30.0908 4.19961 19.7461 -1.48036 -6.00008 -179.519 0.42327 80.3461 11.2841 -3.55271e-15 -1e-06 6.01602 0.761475 -4.94721 33.0001 1.6e-05 -1e-06 -27.1774 4.5954 19.8111 25.1998 0.000123 0.000432 18.1969 -13.8831 6.05626 
-19.1059 90.9177 1.8681 33.5427 84.5526 58.1961 0.103456 1.85784 10.5485 0.361667 7.78095 -172.894 43.5 -4.2e-05 1e-05 -28.8269 -7.33276 -3.31784 42.3722 1.9e-05 0 78.4652 2.64132 1.51663 17.3 -2.22045e-16 3e-06 21.4546 -1e-06 0.003093 0.103456 1.85782 -10.5485 8.22194 -0.6784 176.473 43.5 -2.7e-05 4e-06 -13.6656 11.7571 1.18863 42.3723 -4.44089e-15 1e-05 87.149 7.19086 -8.49369 17.3 -6e-06 1.7e-05 21.4546 -1.9e-05 -0.003116 6.90197 -2.60373 -3e-06 7.48388 0.0786531 -0.0670138 12.5881 1e-05 8e-06 4.95194 0.210958 -0.120928 12.3432 -1.8e-05 -5e-06 4.63059 0.27529 -0.122484 25.8329 2.3e-05 7e-06 4.42663 -0.402048 -4.82333 11.7666 -8e-06 -6e-06 -18.3315 -6.77685 11.4695 19.7459 -1.48035 6.0001 175.673 -10.0929 -98.4679 11.2841 1.8e-05 -2e-05 6.2116 -24.4175 37.0016 33 -1.3e-05 1.9e-05 -31.2064 10.0931 -13.911 25.2 3.2e-05 1.1e-05 -3.98882 29.597 4.64955 19.7461 -1.48036 -6.00008 -179.683 0.365668 80.3981 11.2841 0 -1e-06 5.95479 2.15924 -6.59447 33.0001 1.6e-05 -1e-06 -28.2896 4.73915 20.2126 25.1998 0.000123 0.000432 18.3042 -13.6368 6.56996 
-19.5556 90.7899 2.11687 28.7358 84.7219 62.9387 0.103456 1.85784 10.5485 -2.40396 6.74429 -172.29 43.5 -4.2e-05 1e-05 -34.2068 -6.57357 -3.33601 42.3722 1.9e-05 -4.44089e-16 77.5035 2.65786 2.67622 17.3 -1.33227e-15 3e-06 21.4546 -1e-06 0.003093 0.103456 1.85782 -10.5485 8.21402 -0.95833 176.835 43.5 -2.7e-05 4e-06 -14.3935 11.8968 1.18917 42.3723 -2.66454e-15 1e-05 87.7229 7.42221 -8.3062 17.3 -6e-06 1.7e-05 21.4546 -1.9e-05 -0.003116 6.90197 -2.60373 -3e-06 7.66331 0.0444769 -0.101466 12.5881 1e-05 8e-06 5.31168 0.141615 -0.184425 12.3432 -1.8e-05 -5e-06 4.99152 0.207606 -0.18102 25.8329 2.3e-05 7e-06 4.15248 -0.42759 -4.93576 11.7666 -8e-06 -6e-06 -17.7257 -6.8393 11.541 19.7459 -1.48035 6.0001 176.236 -9.79215 -97.6195 11.2841 1.8e-05 -2e-05 6.31361 -23.5772 38.2176 33 -1.3e-05 1.9e-05 -34.7586 9.24661 -12.57 25.2 3.2e-05 1.1e-05 -5.48189 29.0589 4.95379 19.7461 -1.48036 -6.00008 -179.616 0.255488 80.1345 11.2841 -3.55271e-15 -1e-06 6.03025 3.83127 -9.07258 33.0001 1.6e-05 -1e-06 -30.7316 4.64057 20.7949 25.1998 0.000123 0.000432 17.7097 -13.3478 7.18318 
-19.9506 90.6659 2.36354 22.4726 84.8876 69.1895 0.103456 1.85784 10.5485 -5.84313 5.58694 -171.874 43.5 -4.2e-05 1e-05 -40.5386 -5.39037 -2.85927 42.3722 1.9e-05 -1.33227e-15 75.3255 2.27395 3.53091 17.3 -1.77636e-15 3e-06 21.4546 -1e-06 0.003093 0.103456 1.85782 -10.5485 8.38084 -1.33553 177.103 43.5 -2.7e-05 4e-06 -14.833 12.0441 1.26421 42.3723 -1.77636e-15 1e-05 88.2125 7.5703 -8.19506 17.3 -6e-06 1.7e-05 21.4546 -1.9e-05 -0.003116 6.90197 -2.60373 -3e-06 7.89389 0.0294999 -0.131287 12.5881 1e-05 8e-06 5.77331 0.112137 -0.241249 12.3432 -1.8e-05 -5e-06 5.45374 0.181675 -0.235256 25.8329 2.3e-05 7e-06 3.76623 -0.392531 -5.06965 11.7666 -8e-06 -6e-06 -16.9967 -6.90823 11.6532 19.7459 -1.48035 6.0001 176.838 -9.55164 -96.4436 11.2841 1.8e-05 -2e-05 5.27202 -22.3123 39.7723 33 -1.3e-05 1.9e-05 -38.2462 8.71332 -10.8922 25.2 3.2e-05 1.1e-05 -7.68039 28.9589 5.07299 19.7461 -1.48036 -6.00008 -179.241 0.165072 79.223 11.2841 3.55271e-15 -1e-06 5.99356 5.0771 -11.8781 33.0001 1.6e-05 -1e-06 -34.4714 4.02211 21.4632 25.1998 0.000123 0.000432 15.9904 -13.3066 8.03648 
-20.2347 90.5621 2.64394 15.7592 84.9429 76.0083 0.103456 1.85784 10.5485 -9.90146 4.6432 -171.875 43.5 -4.2e-05 1e-05 -47.5767 -4.09404 -1.81628 42.3722 1.9e-05 4.44089e-16 71.9909 2.20419 4.24563 17.3 1.77636e-15 3e-06 21.4546 -1e-06 0.003093 0.103456 1.85782 -10.5485 8.71666 -1.7104 177.155 43.5 -2.7e-05 4e-06 -15.0925 12.2324 1.4475 42.3723 -1.77636e-15 1e-05 88.6968 7.67821 -8.15851 17.3 -6e-06 1.7e-05 21.4546 -1.9e-05 -0.003116 6.90197 -2.60373 -3e-06 8.14969 -0.00722113 -0.178075 12.5881 1e-05 8e-06 6.28592 0.0369688 -0.328338 12.3432 -1.8e-05 -5e-06 5.96771 0.109034 -0.316875 25.8329 2.3e-05 7e-06 3.36612 -0.306747 -5.30443 11.7666 -8e-06 -6e-06 -16.3629 -6.93319 11.7733 19.7459 -1.48035 6.0001 177.514 -9.28456 -94.9061 11.2841 1.8e-05 -2e-05 3.02417 -20.1791 41.0551 33 -1.3e-05 1.9e-05 -42.1793 8.2717 -8.88677 25.2 3.2e-05 1.1e-05 -10.3895 29.2372 5.1653 19.7461 -1.48036 -6.00008 -178.739 0.097679 77.8867 11.2841 0 -1e-06 5.32285 6.13728 -15.1595 33.0001 1.6e-05 -1e-06 -39.0817 3.35674 21.8444 25.1998 0.000123 0.000432 13.6918 -13.5185 9.24651 
